<svg width="258" height="34" viewBox="0 0 258 34" fill="none" xmlns="http://www.w3.org/2000/svg">
<path fill-rule="evenodd" clip-rule="evenodd" d="M54.5552 20.7788V20.8446C54.5552 24.1724 51.814 25.8678 47.6994 25.8356H38.983V7.5348H47.5034C51.226 7.5348 53.5444 9.394 53.5444 12.2654V12.3298C53.5444 14.385 52.4342 15.5596 51.128 16.2778C53.2504 17.0926 54.5566 18.333 54.5566 20.7788H54.5552ZM46.6228 14.9408C48.4176 14.9408 49.5278 14.385 49.5278 13.0158V12.95C49.5278 11.7432 48.5814 11.0586 46.8832 11.0586H42.9002V14.9408H46.6228ZM47.7008 22.3454C49.462 22.3454 50.54 21.7252 50.54 20.356V20.2902C50.54 19.0498 49.6258 18.3008 47.5692 18.3008H42.9002V22.3454H47.6994H47.7008ZM63.0112 7.567V25.8692H58.9624V7.567H63.0112ZM84.6888 7.567V25.8692H81.2616L72.3814 14.224V25.8692H68.397V7.567H72.121L80.7058 18.8552V7.567H84.6902H84.6888ZM99.1522 7.4368L107.02 25.8678H102.745L101.079 21.7574H93.3422L91.6762 25.8678H87.563L95.431 7.4368H99.1536H99.1522ZM94.8108 18.2028H99.6758L97.2594 12.2654L94.8094 18.2014L94.8108 18.2028ZM126.218 7.567V25.8692H122.791L113.91 14.224V25.8692H109.927V7.567H113.649L122.235 18.8552V7.567H126.218ZM144.47 20.3224L147.049 22.8984C145.155 24.9228 143.066 26.1618 139.539 26.1618C134.152 26.1618 130.137 21.9856 130.137 16.7342V16.6684C130.137 11.4828 134.088 7.2086 139.703 7.2086C143.164 7.2086 145.221 8.3832 146.919 10.0464L144.339 13.0144C142.902 11.7432 141.466 10.9606 139.637 10.9606C136.536 10.9606 134.316 13.5366 134.316 16.6684V16.7342C134.316 19.866 136.503 22.4756 139.637 22.4756C141.76 22.4756 143.034 21.6272 144.47 20.3224ZM164.255 22.2796V25.8356H150.314V7.5348H164.125V11.123H154.297V14.8428H162.949V18.431H154.297V22.281H164.255V22.2796ZM14.4634 0L5.5832 5.1212L8.848 7.0112L14.462 3.7828L20.0788 7.0112L23.3436 5.1212L14.4634 0ZM20.0774 9.688L23.3436 11.5794V15.3636L17.7282 18.5934V25.053L14.4634 26.9444L11.1986 25.053V18.5934L5.5832 15.3636V11.5794L8.848 9.688L14.462 12.9178L20.0788 9.688H20.0774ZM23.3436 18.039V21.8232L20.0788 23.7146V19.9304L23.3436 18.0404V18.039ZM20.0466 26.39L25.6606 23.1602V16.702L28.9268 14.8092V25.053L20.0466 30.1742V26.39ZM25.6606 10.2424L22.3972 8.351L25.662 6.4582L28.9268 8.351V12.1352L25.662 14.0266V10.2424H25.6606ZM11.2 31.5448V27.7592L14.4648 29.6506L17.7296 27.7592V31.5434L14.4648 33.4348L11.2 31.5434V31.5448ZM8.8452 23.7132L5.5832 21.8232V18.039L8.848 19.9304V23.7146L8.8452 23.7132ZM14.462 10.241L11.1972 8.351L14.462 6.4582L17.7268 8.351L14.462 10.2424V10.241ZM6.5296 8.351L3.2648 10.2424V14.0266L0 12.1352V8.351L3.2648 6.4582L6.5296 8.351ZM0 14.8092L3.2648 16.702V23.1602L8.8788 26.39V30.1742L0.0014 25.053V14.8092H0ZM174.818 16.8896C174.818 22.1746 178.801 26.3508 184.156 26.3508C187.617 26.3508 189.706 25.0768 191.6 23.0888L189.543 21C187.975 22.4686 186.539 23.3814 184.286 23.3814C180.793 23.3814 178.247 20.4456 178.247 16.8252C178.247 13.2034 180.761 10.3334 184.286 10.3334C186.376 10.3334 187.943 11.2462 189.413 12.6154L191.47 10.2354C189.706 8.5722 187.683 7.3976 184.286 7.3976C178.737 7.3976 174.818 11.6704 174.818 16.8896ZM197.639 26.0246V18.2924H206.389V26.0246H209.622V7.6902H206.389V15.3244H197.639V7.6902H194.408V26.0246H197.639ZM227.906 26.0246H231.301L223.171 7.56H220.2L212.136 26.0246H215.433L217.328 21.5866H226.012L227.906 26.0246ZM218.536 18.7502L221.669 11.41L224.836 18.7488H218.536V18.7502ZM237.145 26.0246V7.6902H233.913V26.0246H237.145ZM257.615 7.6902H254.416V20.3476L244.588 7.6916H241.618V26.0232H244.784V12.9752L254.906 26.0232H257.615V7.6902Z" fill="white"/>
</svg>
