<svg width="175" height="37" viewBox="0 0 175 37" fill="none" xmlns="http://www.w3.org/2000/svg">
<path d="M63.9079 19.6712C63.2209 19.6579 62.5445 19.8416 61.9586 20.2007C61.4004 20.5478 60.9371 21.028 60.6102 21.5983C60.2679 22.2007 60.0588 22.8696 59.997 23.5597C59.9243 24.3198 60.0143 25.0867 60.2608 25.8094C60.3674 26.1284 60.4926 26.4408 60.6357 26.7452C60.7936 27.0854 60.9952 27.4036 61.2355 27.6916C61.4822 27.9883 61.7817 28.2367 62.1186 28.4246C62.4918 28.6296 62.9121 28.7331 63.3378 28.7248C64.0241 28.7325 64.6968 28.5324 65.2674 28.1508C65.8258 27.7846 66.2882 27.2897 66.6158 26.7077C66.9573 26.0897 67.1618 25.4055 67.2155 24.7014C67.2807 23.9318 67.1874 23.1569 66.9412 22.4248C66.8369 22.1066 66.7157 21.7943 66.5783 21.489C66.433 21.165 66.24 20.8648 66.0055 20.5982C65.7635 20.3241 65.4714 20.0986 65.1449 19.9339C64.7625 19.7491 64.3416 19.6576 63.917 19.6671L63.9079 19.6712ZM63.8337 15.7032C64.5004 15.7117 65.1645 15.7876 65.8159 15.9295C66.5597 16.0847 67.2783 16.3427 67.951 16.6959C68.6603 17.0658 69.3044 17.549 69.8581 18.1264C70.4516 18.7502 70.893 19.5027 71.1479 20.3253C71.3052 20.8276 71.4112 21.3446 71.4641 21.8683C71.5275 22.4711 71.5373 23.0783 71.4935 23.6829C71.6877 23.8522 71.9127 23.9826 72.1562 24.067C72.3796 24.1412 72.6135 24.1792 72.8489 24.1795C73.1999 24.1737 73.5441 24.0809 73.8505 23.9095C74.2125 23.7124 74.5511 23.475 74.8597 23.2017C75.2005 22.9031 75.5178 22.5786 75.8089 22.2313C76.1087 21.8716 76.3937 21.5101 76.6501 21.15C76.9066 20.79 77.1359 20.4464 77.3352 20.1239C77.5345 19.8014 77.6981 19.524 77.8271 19.3006C77.868 19.2486 77.9212 19.2076 77.982 19.1814C78.0427 19.1551 78.1091 19.1445 78.175 19.1505C78.4377 19.1708 78.6838 19.2872 78.8662 19.4774C79.1296 19.7271 79.3218 20.0424 79.4231 20.391C79.5528 20.8285 79.5795 21.2901 79.5011 21.7396C79.3805 22.3394 79.0949 22.8936 78.6765 23.3398C78.4287 23.7308 78.1464 24.1803 77.8294 24.6885C77.5117 25.1988 77.1516 25.6814 76.753 26.1313C76.363 26.5737 75.9139 26.9602 75.4184 27.28C74.9349 27.5941 74.3696 27.7588 73.793 27.7538C73.3729 27.7517 72.9551 27.6911 72.5516 27.5738C72.0809 27.4313 71.6284 27.2346 71.2032 26.9874C70.9269 27.8067 70.5323 28.5813 70.0322 29.2866C69.5345 29.9821 68.9183 30.5847 68.2119 31.0668C67.4517 31.5825 66.615 31.9751 65.7326 32.2302C64.7144 32.5209 63.6593 32.6618 62.6005 32.6486C62.058 32.6325 61.5196 32.5488 60.9977 32.3996C60.3226 32.2165 59.6762 31.9402 59.0772 31.5787C58.4017 31.1724 57.7911 30.6669 57.2659 30.0791C56.6858 29.4286 56.2512 28.6617 55.9914 27.8297C55.7759 27.1259 55.6411 26.3997 55.5895 25.6654C55.5198 24.7974 55.5455 23.9243 55.666 23.0619C55.7934 22.1503 56.0289 21.2571 56.3675 20.4012C56.7116 19.5263 57.2166 18.7237 57.8563 18.0349C58.5446 17.3064 59.3783 16.7305 60.3033 16.3447C61.4236 15.8907 62.6254 15.6723 63.8337 15.7032Z" fill="#F2B705"/>
<path d="M28.7389 30.432C28.6249 29.1604 28.5014 27.6887 28.3684 26.0169C28.2353 24.3452 28.1029 22.5958 27.9712 20.7689C27.8369 18.9421 27.7055 17.1048 27.5769 15.2569C27.4483 13.4091 27.3378 11.6793 27.2454 10.0675C26.7559 11.5763 26.2596 13.0919 25.7566 14.6146C25.2536 16.1372 24.7788 17.5836 24.3323 18.9537C23.8815 20.322 23.4641 21.5602 23.0803 22.6684C22.6965 23.7767 22.3862 24.6715 22.1494 25.3529C21.8992 25.8106 21.6438 26.2465 21.3831 26.6605C21.1468 27.0437 20.8799 27.4072 20.5852 27.7476C20.3416 28.0366 20.0578 28.2892 19.7425 28.4976C19.4761 28.6759 19.1634 28.7723 18.8429 28.7749C18.4787 28.7882 18.1185 28.6959 17.8055 28.5093C17.6669 28.4207 17.5487 28.3036 17.4588 28.1658C17.3688 28.028 17.3092 27.8727 17.2837 27.7101C17.2703 27.6365 17.2597 27.56 17.2544 27.5002C17.2501 27.4293 17.2551 27.3583 17.2694 27.2888C16.7697 25.189 16.292 23.0709 15.8363 20.9345C15.3806 18.7982 14.9498 16.6951 14.5439 14.6254L14.259 13.1618C14.1643 12.6731 14.079 12.1943 14.001 11.719C13.6688 13.0507 13.2945 14.4334 12.878 15.8671C12.4616 17.3007 12.0121 18.7164 11.5297 20.1142C11.0468 21.5139 10.532 22.8596 9.98546 24.1514C9.48101 25.3574 8.90989 26.5344 8.27476 27.677C7.74969 28.6327 7.13519 29.5366 6.4395 30.3763C5.9204 31.0334 5.26218 31.5673 4.51218 31.9396C4.02345 32.1617 3.51752 32.3438 2.99935 32.4841C2.61189 32.5882 2.21305 32.6442 1.81189 32.6506C1.3722 32.676 0.935572 32.5633 0.56317 32.3281C0.285724 32.1476 0.0910541 31.8646 0.021764 31.5409C-0.0437376 31.1398 0.0423625 30.7286 0.2633 30.3875C0.527602 29.9623 0.923595 29.6352 1.39096 29.456C2.01982 29.1892 2.64848 28.6014 3.27694 27.6925C3.98631 26.6412 4.60574 25.532 5.12863 24.3765C5.72837 23.0769 6.31169 21.6273 6.8786 20.0277C7.44551 18.4281 7.97724 16.8089 8.4738 15.1702C8.97387 13.5295 9.43428 11.9218 9.85502 10.3472C10.2758 8.7726 10.6421 7.34937 10.9539 6.07752C11.2686 4.80587 11.5244 3.74463 11.7214 2.89379C11.9183 2.04296 12.0414 1.51464 12.0904 1.30882C12.1744 0.90057 12.4157 0.541773 12.762 0.309934C13.0817 0.106109 13.4533 -0.00165724 13.8325 -0.000558009C14.0515 -0.0153356 14.2713 0.015585 14.4777 0.0902311C14.6842 0.164877 14.8729 0.281621 15.0319 0.433068C15.3034 0.716287 15.4983 1.23523 15.6422 1.97465C15.9422 2.90659 16.2121 3.78235 16.4518 4.6019C16.6916 5.42146 16.9255 6.26428 17.1536 7.13036C17.3793 7.99507 17.6007 8.92691 17.8178 9.9259C18.0349 10.9249 18.2694 12.0746 18.5213 13.375C18.7031 14.3077 18.8845 15.3355 19.0657 16.4584C19.2468 17.5813 19.4722 18.8381 19.7419 20.2288C20.8904 17.0065 21.909 14.1641 22.7978 11.7017C23.6865 9.23935 24.4762 7.17726 25.1668 5.51548C25.6762 4.2116 26.287 2.94967 26.9936 1.74127C27.5242 0.891224 27.9959 0.4663 28.4088 0.466495H28.5589C28.6026 0.466677 28.6462 0.463143 28.6893 0.455937C28.7329 0.448223 28.777 0.444207 28.8212 0.443921C29.1751 0.443921 29.4989 0.665863 29.7927 1.10975C30.1176 1.63916 30.3366 2.22663 30.4375 2.83956C30.5184 3.56529 30.6049 4.46509 30.697 5.53894C30.789 6.61278 30.8824 7.79902 30.9772 9.09765C31.0772 10.3924 31.1772 11.7566 31.2771 13.1903C31.3769 14.6239 31.4769 16.0472 31.5769 17.46C31.6768 18.8727 31.7767 20.2444 31.8768 21.5751C31.9769 22.9058 32.0813 24.1105 32.1902 25.1893C32.1985 25.3867 32.222 25.5832 32.2605 25.7771L32.3778 26.3878C32.4524 26.7715 32.5353 27.1594 32.6263 27.5515C32.7166 27.9443 32.799 28.3311 32.8737 28.7166C32.9607 29.1605 33.0257 29.61 33.0687 30.0653C33.1163 30.4762 33.0723 30.8927 32.94 31.2846C32.7975 31.6628 32.524 31.9772 32.1693 32.1706C31.6397 32.4319 31.0511 32.5509 30.4616 32.5157C30.2664 32.517 30.0731 32.4777 29.894 32.4002C29.7148 32.3227 29.5537 32.2088 29.421 32.0657C29.1192 31.7604 28.8919 31.2158 28.7389 30.432Z" fill="#F2B705"/>
<path d="M76.5678 18.4776C76.6145 17.9429 76.8432 17.4405 77.2156 17.0541C77.518 16.7562 77.9246 16.5879 78.3491 16.585C78.7318 16.5984 79.0999 16.7352 79.3985 16.975C79.7715 17.2628 80.0394 17.6654 80.1606 18.1208C80.2213 18.3239 80.2629 18.5323 80.2849 18.7432C80.3097 18.9804 80.3027 19.2199 80.2641 19.4553C80.5058 18.9721 80.8358 18.5383 81.237 18.1765C81.7201 17.7202 82.2568 17.3243 82.8354 16.9976C83.4533 16.6443 84.1066 16.3568 84.7844 16.1397C85.4468 15.922 86.1392 15.8096 86.8363 15.8066C87.5715 15.7987 88.2945 15.995 88.9249 16.3736C89.602 16.8214 90.0839 17.5095 90.2732 18.299C90.4371 18.8409 90.5283 19.4022 90.5447 19.9681C90.561 20.548 90.5316 21.1283 90.4567 21.7035C90.3816 22.2767 90.273 22.845 90.1314 23.4055C89.9924 23.9625 89.8459 24.4855 89.6917 24.9743C89.5375 25.4632 89.397 25.9127 89.2702 26.323C89.1415 26.7308 89.0468 27.0727 88.9838 27.3351C88.8679 27.5954 88.8574 27.8904 88.9544 28.1583C88.9923 28.2795 89.0634 28.3877 89.1596 28.4706C89.2671 28.5624 89.4054 28.6101 89.5466 28.604C89.6592 28.6026 89.7716 28.5911 89.8822 28.5697C90.0361 28.5314 90.1763 28.4508 90.287 28.3372C91.0015 28.0251 91.688 27.6523 92.3389 27.2231C93.0035 26.7884 93.6433 26.3168 94.2551 25.8105C94.8207 25.3419 95.359 24.8411 95.8673 24.3108C96.2811 23.8861 96.6677 23.4356 97.0248 22.9622C97.0988 22.8666 97.1944 22.79 97.3039 22.7388C97.3984 22.6969 97.5004 22.6745 97.6038 22.6728C97.7278 22.6741 97.8502 22.7004 97.9638 22.7502C98.0774 22.7999 98.1798 22.8721 98.2648 22.9625C98.4676 23.1667 98.6156 23.4188 98.6951 23.6954C98.8366 24.1957 98.8526 24.7232 98.7417 25.2311C98.6144 25.8278 98.3201 26.376 97.8931 26.8117C97.2564 27.4188 96.6722 27.9747 96.1405 28.4794C95.6121 28.9821 95.0554 29.4542 94.4732 29.8934C93.8648 30.3493 93.2227 30.7585 92.5526 31.1175C91.7354 31.5444 90.882 31.8982 90.0024 32.1747C89.6934 32.2846 89.3773 32.3737 89.0565 32.4415C88.7841 32.4983 88.5068 32.5277 88.2287 32.5295C87.5426 32.557 86.8718 32.3222 86.3527 31.8727C85.8279 31.3724 85.4507 30.7374 85.2625 30.0371C85.2309 29.9336 85.2039 29.8319 85.1816 29.7372C85.1593 29.6425 85.1365 29.5319 85.1157 29.4146C85.0016 28.9189 84.9662 28.4083 85.0107 27.9015C85.0549 27.333 85.1355 26.768 85.252 26.2098C85.371 25.6311 85.5094 25.0562 85.6673 24.4853C85.8252 23.9143 85.9661 23.373 86.09 22.8613C86.2161 22.35 86.3107 21.8938 86.3764 21.4921C86.4439 21.1689 86.4378 20.8346 86.3585 20.514C86.2935 20.2957 86.17 20.0992 86.0015 19.9458C85.8318 19.7899 85.6083 19.7058 85.378 19.7113C84.5106 19.6915 83.6665 19.9927 83.0075 20.5571C82.3274 21.1478 81.7551 21.8521 81.3161 22.6388C80.8417 23.4729 80.4428 24.3477 80.124 25.2528C79.798 26.1727 79.5147 26.9959 79.2739 27.7226C79.1311 28.237 79.0273 28.7615 78.9635 29.2915C78.9012 29.8154 78.8105 30.3356 78.6921 30.8498C78.602 31.279 78.4288 31.6865 78.1823 32.0492C78.0573 32.2128 77.8932 32.3424 77.7051 32.426C77.517 32.5096 77.3108 32.5446 77.1057 32.5277C76.6146 32.5328 76.1385 32.3584 75.767 32.0372C75.3873 31.7256 75.109 31.3079 74.9676 30.8375C74.8792 30.436 74.8554 30.023 74.8972 29.614C74.9273 29.0501 74.9873 28.3973 75.0772 27.6555C75.1672 26.9132 75.2824 26.1169 75.419 25.2558C75.5556 24.3947 75.6934 23.5582 75.8344 22.72C75.9754 21.8818 76.1134 21.0913 76.2483 20.3507C76.3831 19.6101 76.4965 19.0024 76.5678 18.4776Z" fill="#F2B705"/>
<path d="M115.39 12.7367C115.286 12.397 115.238 12.0423 115.25 11.6871C115.257 11.3425 115.343 11.0041 115.5 10.6973C115.661 10.3944 115.901 10.141 116.195 9.9643C116.567 9.7552 116.991 9.65493 117.417 9.67492C118.253 9.67492 118.888 9.84106 119.323 10.1733C119.742 10.4884 120.05 10.9292 120.202 11.4314C120.291 11.7345 120.333 12.0498 120.325 12.3658C120.325 12.6916 120.257 13.0139 120.127 13.3122C119.993 13.6079 119.777 13.8588 119.504 14.0349C119.16 14.2434 118.761 14.3442 118.359 14.3246C117.46 14.3246 116.788 14.1796 116.344 13.8895C115.91 13.6186 115.575 13.214 115.39 12.7367ZM114.537 17.744C114.616 17.3884 114.819 17.0726 115.11 16.8533C115.375 16.6742 115.689 16.581 116.009 16.5865C116.582 16.5946 117.136 16.786 117.592 17.1324C118.079 17.4673 118.439 17.9574 118.612 18.5227C118.639 18.6564 118.661 18.7898 118.681 18.9232C118.699 19.0568 118.693 19.1926 118.662 19.3237C118.577 19.7104 118.512 20.0359 118.463 20.303C118.415 20.5701 118.372 20.8187 118.333 21.0529C118.294 21.2872 118.259 21.503 118.226 21.7323C118.193 21.9615 118.153 22.2213 118.103 22.533C118.043 22.9043 117.972 23.3087 117.889 23.7462C117.806 24.1824 117.739 24.6325 117.684 25.0948C117.63 25.5424 117.602 25.9927 117.6 26.4435C117.594 26.8575 117.651 27.27 117.768 27.6673C117.835 27.9912 118.026 28.2756 118.302 28.4589C118.578 28.5946 118.884 28.6596 119.192 28.648C119.602 28.6468 120.006 28.5557 120.377 28.3809C120.776 28.1953 121.151 27.9638 121.497 27.6913C121.867 27.4011 122.21 27.0772 122.521 26.7238C122.835 26.3715 123.131 26.0035 123.409 25.6214C123.678 25.25 123.922 24.8941 124.141 24.5536C124.335 24.2592 124.513 23.9548 124.675 23.6418C124.753 23.5153 124.861 23.4103 124.99 23.3365C125.118 23.2626 125.263 23.2222 125.412 23.219C125.554 23.2247 125.694 23.2591 125.823 23.3202C125.951 23.3812 126.067 23.4677 126.161 23.5744C126.411 23.8299 126.592 24.1439 126.689 24.4876C126.794 24.8411 126.822 25.2127 126.773 25.578C126.718 25.9788 126.552 26.3564 126.295 26.6684C125.794 27.4393 125.27 28.1771 124.72 28.8819C124.192 29.5638 123.596 30.1904 122.942 30.7519C122.333 31.276 121.655 31.7135 120.926 32.0522C120.207 32.3821 119.424 32.5501 118.632 32.5445C117.546 32.57 116.48 32.2462 115.591 31.6206C114.731 31.0059 114.103 30.0457 113.705 28.74C113.502 28.0907 113.392 27.4162 113.376 26.7361C113.363 26.1009 113.393 25.4656 113.466 24.8345C113.537 24.2186 113.63 23.6252 113.744 23.0543C113.854 22.5137 113.933 21.9674 113.981 21.418C113.995 21.2259 114.029 20.9292 114.088 20.5287C114.146 20.1282 114.212 19.7189 114.288 19.3032C114.362 18.8134 114.445 18.294 114.537 17.7449" fill="#F2B705"/>
<path d="M143.632 27.0003C142.866 27.8025 141.975 28.4752 140.994 28.9919C139.945 29.5002 138.788 29.7486 137.623 29.7161C137.169 29.712 136.719 29.6288 136.293 29.4701C135.659 29.2243 135.043 28.9347 134.449 28.6034C134.014 29.714 133.341 30.7161 132.479 31.5397C131.738 32.2027 130.774 32.5606 129.78 32.5415C129.256 32.5381 128.736 32.4436 128.244 32.2624C127.712 32.0696 127.216 31.7877 126.779 31.4286C126.296 31.0322 125.874 30.5674 125.525 30.0489C125.129 29.4611 124.825 28.8156 124.626 28.1352C124.344 27.1947 124.147 26.2306 124.038 25.2547C123.918 24.223 123.846 23.2178 123.821 22.2389C123.795 21.2601 123.79 20.3553 123.804 19.5246C123.817 18.6937 123.828 18.0334 123.837 17.5435C123.884 17.0232 124.128 16.5406 124.519 16.1949C124.849 15.9297 125.258 15.7843 125.681 15.7823C125.885 15.7854 126.087 15.8194 126.281 15.8829C126.497 15.9495 126.704 16.0427 126.897 16.1603C127.088 16.277 127.262 16.4193 127.415 16.5833C127.558 16.7357 127.666 16.9181 127.73 17.1172C127.777 17.253 127.791 17.3977 127.772 17.54C127.772 18.2532 127.753 19.0286 127.714 19.8662C127.674 20.7037 127.654 21.5454 127.652 22.3914C127.652 23.2373 127.684 24.0642 127.748 24.8721C127.804 25.6227 127.941 26.3651 128.154 27.0868C128.2 27.2275 128.257 27.3647 128.322 27.4973C128.403 27.6685 128.49 27.8318 128.58 27.9878C128.664 28.1325 128.765 28.2669 128.88 28.3883C128.951 28.4799 129.055 28.5398 129.17 28.5548C129.384 28.5379 129.592 28.4708 129.776 28.3587C129.96 28.2466 130.115 28.0928 130.228 27.9098C130.625 27.3593 130.951 26.7612 131.198 26.1295C131.54 25.5542 131.807 24.9373 131.991 24.2939C132.201 23.5891 132.384 22.8659 132.54 22.1243C132.696 21.3827 132.841 20.6519 132.975 19.9318C133.108 19.2139 133.258 18.5689 133.425 17.9968C133.553 17.5114 133.751 17.0468 134.011 16.6171C134.095 16.4619 134.218 16.3319 134.369 16.2402C134.52 16.1485 134.692 16.0985 134.868 16.0952C135.136 16.085 135.402 16.1324 135.65 16.2341C135.897 16.3357 136.12 16.4893 136.303 16.6845C136.675 17.0879 136.948 17.5712 137.103 18.0971C137.284 18.6496 137.362 19.2306 137.333 19.8113C137.292 20.358 137.191 20.8986 137.034 21.4239C136.87 21.9809 136.666 22.5966 136.418 23.271C136.17 23.9453 135.92 24.7513 135.669 25.6854C135.832 25.8408 136.024 25.9622 136.234 26.0428C136.444 26.1233 136.668 26.1613 136.893 26.1545C137.417 26.1535 137.938 26.0859 138.444 25.9533C138.958 25.82 139.455 25.6298 139.926 25.3863C140.408 25.1347 140.864 24.8364 141.288 24.4956C141.724 24.1462 142.131 23.7631 142.507 23.3498C142.661 23.224 142.852 23.1532 143.051 23.1487C143.194 23.1547 143.333 23.1894 143.462 23.2508C143.591 23.3121 143.707 23.3989 143.801 23.5058C144.049 23.7614 144.23 24.0748 144.326 24.4176C144.451 24.8406 144.468 25.2878 144.378 25.7194C144.276 26.2163 144.014 26.6662 143.632 27.0003Z" fill="#F2B705"/>
<path d="M148.668 18.857C148.603 18.8431 148.535 18.8356 148.468 18.8344H148.273C147.774 18.8228 147.28 18.9373 146.838 19.1675C146.435 19.3867 146.08 19.686 145.797 20.0471C145.506 20.4198 145.275 20.8364 145.114 21.2814C144.949 21.7292 144.81 22.1864 144.698 22.6506C144.596 23.0791 144.523 23.514 144.479 23.9523C144.441 24.3675 144.422 24.7174 144.42 25.0022C144.866 24.7203 145.297 24.416 145.712 24.0904C146.148 23.7486 146.557 23.422 146.938 23.1109C147.319 22.7997 147.648 22.5178 147.925 22.265C148.201 22.0131 148.398 21.8426 148.515 21.7537C148.94 21.4578 149.28 21.0547 149.499 20.5854C149.63 20.2876 149.658 19.9546 149.578 19.6392C149.517 19.4261 149.389 19.2386 149.212 19.1053C149.057 18.9793 148.874 18.8924 148.678 18.852L148.668 18.857ZM148.519 15.7856C149.576 15.7415 150.618 16.0553 151.475 16.6763C152.27 17.3041 152.845 18.1693 153.115 19.1461C153.305 19.778 153.346 20.4452 153.236 21.0958C153.085 21.8652 152.737 22.5824 152.227 23.1774C151.515 24.0142 150.683 24.7414 149.759 25.3356C148.423 26.2042 147.008 26.9452 145.534 27.5488C145.74 27.9843 146.084 28.3398 146.513 28.5609C147.008 28.8173 147.56 28.9437 148.118 28.9283C148.808 28.9241 149.494 28.8231 150.157 28.6284C150.85 28.4296 151.525 28.1727 152.175 27.8605C152.821 27.5489 153.444 27.2114 154.038 26.8481C154.633 26.4849 155.167 26.1404 155.639 25.8135C156.111 25.4866 156.498 25.2045 156.809 24.9676C157.01 24.8041 157.221 24.6538 157.441 24.5179C157.528 24.4395 157.635 24.3875 157.75 24.3678C157.845 24.3545 157.941 24.3474 158.037 24.3467C158.201 24.3445 158.363 24.3865 158.506 24.4683C158.644 24.5488 158.772 24.646 158.887 24.7577C158.995 24.8628 159.086 24.9831 159.158 25.1148C159.215 25.2176 159.262 25.3256 159.299 25.4373C159.344 25.5942 159.379 25.7541 159.403 25.9158C159.423 26.1357 159.377 26.3567 159.27 26.55C159.101 26.7597 158.921 26.96 158.729 27.1498C158.417 27.4768 158.004 27.8628 157.492 28.3076C156.906 28.8096 156.295 29.2812 155.661 29.7205C154.927 30.2343 154.155 30.6921 153.353 31.09C152.493 31.5161 151.596 31.8619 150.672 32.1229C149.714 32.3979 148.722 32.5368 147.725 32.5354C146.879 32.5393 146.041 32.3649 145.266 32.0238C144.487 31.6799 143.767 31.2148 143.134 30.6458C142.483 30.0599 141.917 29.3853 141.453 28.6419C140.983 27.9012 140.615 27.1008 140.358 26.2621C140.157 25.5807 140.065 24.8722 140.083 24.1622C140.097 23.3817 140.218 22.6067 140.441 21.8587C140.676 21.0648 141.016 20.3057 141.45 19.6011C142.373 18.0759 143.787 16.9109 145.461 16.2987C146.44 15.9429 147.476 15.7686 148.518 15.7844" fill="#F2B705"/>
<path d="M113.276 21.7604C113.467 21.9196 113.62 22.1195 113.724 22.3455C113.827 22.5715 113.879 22.8179 113.876 23.0666C113.867 23.3959 113.789 23.7196 113.645 24.0159C113.234 24.8527 112.33 25.5528 111.586 26.1154C110.761 26.6715 109.789 26.9677 108.794 26.9657C108.12 26.9824 107.465 26.7392 106.964 26.2864C106.714 26.0543 106.516 25.7701 106.387 25.4538C106.257 25.1374 106.199 24.7966 106.215 24.4551C106.217 23.9908 106.242 23.5269 106.291 23.0651C106.332 22.8169 106.358 22.5665 106.369 22.3151C106.375 22.2416 106.366 22.1677 106.343 22.0977C106.319 22.0277 106.283 21.963 106.234 21.9073C106.192 21.8639 106.141 21.8295 106.085 21.8064C106.029 21.7832 105.968 21.7716 105.907 21.7724C105.548 21.7724 105.059 22.1513 104.442 22.9091C103.72 23.8391 103.1 24.8448 102.595 25.9084C101.973 27.1704 101.471 28.4879 101.096 29.8436C100.812 30.9294 100.491 31.6526 100.133 32.0132C99.7752 32.3738 99.1845 32.5548 98.3612 32.5562C97.9193 32.5783 97.4819 32.4596 97.1117 32.2172C96.7415 31.9749 96.4577 31.6214 96.3011 31.2075C95.9032 30.3084 95.7032 28.8587 95.7011 26.8584C95.6862 24.0039 96.1683 21.1687 97.1257 18.4796C97.315 17.8761 97.7195 17.3632 98.2621 17.0383C98.9483 16.6967 99.7113 16.5386 100.477 16.5795C100.844 16.5533 101.213 16.6117 101.555 16.7504C101.662 16.8176 101.748 16.9137 101.802 17.0276C101.857 17.1415 101.878 17.2685 101.863 17.394C101.863 17.7568 101.671 18.571 101.285 19.8368C101.028 20.7359 100.823 21.5275 100.669 22.2116C100.492 23.0403 100.364 23.8786 100.284 24.7222C100.992 23.0061 101.952 21.4053 103.133 19.9726C103.987 18.9164 105.032 18.0306 106.214 17.3614C107.05 16.8866 107.988 16.6188 108.949 16.5804C109.571 16.5388 110.185 16.7398 110.662 17.1412C110.872 17.3588 111.034 17.618 111.138 17.9022C111.241 18.1864 111.283 18.4891 111.262 18.7907C111.198 19.6161 111.056 20.4335 110.838 21.2321H111.186C111.745 21.2339 112.877 21.4092 113.276 21.7604Z" fill="#F2B705"/>
<path d="M174.398 21.7378C174.589 21.8973 174.742 22.0973 174.846 22.3232C174.95 22.5491 175.002 22.7953 174.999 23.044C174.989 23.3733 174.91 23.6968 174.767 23.9933C174.357 24.8301 173.452 25.532 172.706 26.0929C171.884 26.6499 170.914 26.9487 169.922 26.9507C169.247 26.9673 168.592 26.7241 168.092 26.2714C167.841 26.0393 167.644 25.7551 167.515 25.4388C167.385 25.1225 167.326 24.7816 167.342 24.4402C167.344 23.9757 167.37 23.5116 167.421 23.0499C167.46 22.8016 167.486 22.5513 167.496 22.3002C167.502 22.2268 167.493 22.1531 167.469 22.0834C167.446 22.0136 167.409 21.9492 167.361 21.8938C167.318 21.85 167.268 21.8153 167.212 21.7918C167.155 21.7683 167.095 21.7565 167.034 21.7572C166.675 21.7572 166.187 22.1361 165.571 22.8939C164.848 23.8232 164.229 24.829 163.724 25.8932C163.102 27.1543 162.6 28.4712 162.225 29.8266C161.943 30.9126 161.622 31.6365 161.261 31.9982C160.901 32.36 160.31 32.5409 159.489 32.5409C159.047 32.5624 158.61 32.4436 158.24 32.2013C157.87 31.959 157.586 31.6058 157.428 31.1923C157.031 30.2932 156.831 28.8435 156.829 26.8434C156.815 23.989 157.298 21.1538 158.255 18.4647C158.445 17.862 158.849 17.3495 159.39 17.0234C160.077 16.6824 160.84 16.5273 161.605 16.5736C161.973 16.5477 162.342 16.6056 162.684 16.7428C162.791 16.8103 162.876 16.9067 162.931 17.0209C162.985 17.135 163.006 17.2622 162.991 17.3878C162.991 17.7486 162.799 18.5624 162.414 19.8292C162.157 20.7283 161.952 21.5199 161.799 22.204C161.62 23.0324 161.491 23.8706 161.412 24.7143C162.12 22.9978 163.08 21.3968 164.262 19.9646C165.116 18.9102 166.161 18.0252 167.341 17.3553C168.177 16.8794 169.115 16.612 170.077 16.5757C170.699 16.533 171.313 16.7335 171.791 17.1351C172.001 17.3526 172.162 17.6118 172.266 17.896C172.369 18.1802 172.411 18.483 172.39 18.7846C172.326 19.6099 172.184 20.4273 171.967 21.2259H172.312C172.865 21.2116 174 21.3869 174.398 21.7378Z" fill="#F2B705"/>
<path d="M44.2977 15.7031C42.1861 15.7031 40.1611 16.5421 38.668 18.0355C37.1749 19.5289 36.3361 21.5544 36.3361 23.6664C36.3362 24.1695 36.3834 24.6715 36.4771 25.1658L37.5056 24.4621C39.3139 23.2216 42.2467 23.2216 44.055 24.4621L45.1343 25.2015L45.7205 25.6038C47.3503 26.7205 49.9905 26.7205 51.6189 25.6038L52.0987 25.2751C52.3358 24.1177 52.3126 22.922 52.0308 21.7747C51.7489 20.6273 51.2156 19.557 50.4693 18.6412C49.723 17.7254 48.7824 16.9871 47.7157 16.4796C46.6489 15.9722 45.4827 15.7084 44.3015 15.7072L44.2977 15.7031Z" fill="#F2B705"/>
<path d="M48.772 28.4503C47.6346 28.4698 46.5171 28.1505 45.5617 27.533L43.8988 26.3931C42.9937 25.838 41.9528 25.5443 40.8911 25.5443C39.8295 25.5443 38.7886 25.838 37.8835 26.3931L36.8083 27.1292C36.7577 27.1639 36.7008 27.1882 36.6408 27.2009C36.5808 27.2135 36.5189 27.2142 36.4586 27.203C36.3983 27.1917 36.3408 27.1686 36.2895 27.1351C36.2381 27.1016 36.1938 27.0583 36.1592 27.0077C36.1245 26.9571 36.1002 26.9002 36.0875 26.8402C36.0749 26.7801 36.0742 26.7182 36.0855 26.6579C36.0968 26.5976 36.1198 26.5402 36.1533 26.4888C36.1868 26.4374 36.2301 26.3931 36.2807 26.3584L37.3556 25.6223C38.4165 24.9615 39.6413 24.6113 40.8911 24.6113C42.1409 24.6113 43.3657 24.9615 44.4267 25.6223L46.0896 26.7622C46.897 27.2563 47.8251 27.5178 48.7717 27.5178C49.7183 27.5178 50.6464 27.2563 51.4538 26.7622L52.0852 26.3303C52.1358 26.2957 52.1928 26.2713 52.2528 26.2587C52.3128 26.246 52.3747 26.2453 52.435 26.2566C52.4952 26.2679 52.5527 26.2909 52.6041 26.3244C52.6554 26.3579 52.6997 26.4012 52.7344 26.4518C52.769 26.5025 52.7933 26.5594 52.806 26.6194C52.8186 26.6794 52.8193 26.7413 52.808 26.8016C52.7968 26.8619 52.7737 26.9194 52.7402 26.9708C52.7067 27.0222 52.6635 27.0664 52.6129 27.1011L51.9818 27.5333C51.0265 28.1507 49.9092 28.4699 48.772 28.4503Z" fill="#53CBC8"/>
<path d="M40.8567 31.7944V27.2955C40.8532 27.2008 40.8572 27.106 40.8687 27.0119C40.8827 26.8881 40.9418 26.7738 41.0348 26.6908C41.1277 26.6079 41.248 26.5621 41.3726 26.5622C41.4933 26.5655 41.6086 26.6132 41.6963 26.6962C41.784 26.7791 41.8381 26.8916 41.848 27.0119C41.8672 27.1681 41.8726 27.3257 41.8645 27.4828V36.4543C41.8669 36.5242 41.8554 36.5938 41.8307 36.6591C41.8061 36.7245 41.7687 36.7843 41.7207 36.8351C41.6727 36.8858 41.6152 36.9266 41.5513 36.955C41.4875 36.9833 41.4187 36.9987 41.3489 37.0003C41.2789 36.9964 41.2104 36.9783 41.1477 36.9471C41.0849 36.9158 41.0292 36.8722 40.9839 36.8187C40.9386 36.7652 40.9046 36.7031 40.8841 36.636C40.8636 36.569 40.857 36.4985 40.8646 36.4288V33.4383L40.8567 31.7944Z" fill="#53CBC8"/>
<path d="M39.9108 29.5299V31.7657C39.9108 32.1469 39.7056 32.4016 39.4174 32.3926C39.3424 32.3848 39.2697 32.3624 39.2033 32.3264C39.137 32.2905 39.0785 32.2418 39.0311 32.1831C38.9837 32.1244 38.9483 32.0569 38.9271 31.9846C38.9059 31.9122 38.8992 31.8363 38.9074 31.7613V27.2911C38.9074 26.8994 39.1354 26.6352 39.4321 26.6505C39.7287 26.6657 39.9061 26.9026 39.9075 27.2937C39.9122 28.0393 39.9108 28.7846 39.9108 29.5299Z" fill="#53CBC8"/>
<path d="M42.8151 29.5269V27.9552C42.8151 27.5907 43.0082 27.3553 43.2964 27.3553C43.369 27.3587 43.4403 27.3767 43.5058 27.4083C43.5713 27.44 43.6298 27.4845 43.6777 27.5392C43.7256 27.594 43.762 27.6579 43.7846 27.727C43.8072 27.7962 43.8156 27.8692 43.8094 27.9417C43.8203 29.0116 43.8203 30.081 43.8094 31.1497C43.8188 31.2222 43.8126 31.2959 43.7913 31.3659C43.77 31.4358 43.734 31.5004 43.6857 31.5554C43.6374 31.6103 43.578 31.6543 43.5113 31.6844C43.4447 31.7145 43.3724 31.73 43.2993 31.7299C43.0041 31.727 42.8154 31.5033 42.8121 31.1301V29.5255L42.8151 29.5269Z" fill="#53CBC8"/>
<path d="M36.9584 29.855V28.2832C36.9584 27.9191 37.1518 27.6833 37.4397 27.6833C37.5123 27.6867 37.5836 27.7048 37.6491 27.7364C37.7146 27.768 37.7731 27.8125 37.821 27.8673C37.8689 27.922 37.9053 27.9859 37.9279 28.0551C37.9505 28.1242 37.9589 28.1972 37.9527 28.2697C37.9624 29.3397 37.9624 30.409 37.9527 31.4778C37.9619 31.5503 37.9557 31.6239 37.9343 31.6938C37.9129 31.7637 37.8769 31.8282 37.8287 31.8831C37.7804 31.938 37.721 31.982 37.6545 32.0121C37.5879 32.0423 37.5157 32.0579 37.4426 32.058C37.1495 32.0551 36.9584 31.8314 36.9551 31.4581V29.8535L36.9584 29.855Z" fill="#53CBC8"/>
<path d="M45.255 28.516C45.3859 28.5161 45.5114 28.5681 45.6039 28.6607C45.6964 28.7533 45.7484 28.8788 45.7484 29.0097V29.8644C45.7484 29.9952 45.6964 30.1207 45.6039 30.2133C45.5114 30.3058 45.3859 30.3578 45.255 30.3578C45.1242 30.3578 44.9987 30.3058 44.9061 30.2133C44.8135 30.1208 44.7615 29.9953 44.7614 29.8644V29.0097C44.7614 28.8788 44.8134 28.7532 44.906 28.6606C44.9986 28.568 45.1241 28.516 45.255 28.516Z" fill="#53CBC8"/>
<path d="M47.2103 29.2645C47.3411 29.2646 47.4666 29.3167 47.5591 29.4092C47.6516 29.5018 47.7036 29.6274 47.7036 29.7583V34.5525C47.7036 34.6833 47.6516 34.8088 47.5591 34.9014C47.4666 34.9939 47.3411 35.0459 47.2103 35.0459C47.1455 35.0459 47.0813 35.0332 47.0214 35.0084C46.9615 34.9836 46.9071 34.9473 46.8613 34.9014C46.8155 34.8556 46.7792 34.8012 46.7544 34.7413C46.7296 34.6814 46.7169 34.6173 46.7169 34.5525V29.7583C46.7169 29.6934 46.7296 29.6292 46.7544 29.5693C46.7792 29.5094 46.8155 29.455 46.8613 29.4092C46.9071 29.3633 46.9615 29.3269 47.0214 29.3021C47.0813 29.2773 47.1454 29.2645 47.2103 29.2645Z" fill="#53CBC8"/>
<path d="M49.1531 29.4504C49.2839 29.4504 49.4094 29.5024 49.502 29.5949C49.5946 29.6874 49.6466 29.8129 49.6467 29.9438V34.0191C49.6466 34.0839 49.6339 34.1481 49.609 34.2079C49.5842 34.2678 49.5478 34.3222 49.502 34.368C49.4561 34.4137 49.4017 34.4501 49.3419 34.4748C49.282 34.4996 49.2178 34.5123 49.1531 34.5123C49.0883 34.5123 49.0241 34.4996 48.9643 34.4748C48.9044 34.4501 48.8501 34.4137 48.8042 34.3679C48.7584 34.3221 48.7221 34.2678 48.6973 34.2079C48.6725 34.1481 48.6597 34.0839 48.6597 34.0191V29.9438C48.6597 29.8129 48.7117 29.6875 48.8042 29.5949C48.8967 29.5024 49.0222 29.4504 49.1531 29.4504Z" fill="#53CBC8"/>
<path d="M51.1205 28.9857C51.2514 28.9857 51.3769 29.0377 51.4694 29.1302C51.5619 29.2228 51.6139 29.3483 51.6139 29.4791V31.2365C51.6139 31.3674 51.5619 31.4929 51.4694 31.5854C51.3769 31.678 51.2514 31.73 51.1205 31.73C50.9897 31.73 50.8642 31.678 50.7717 31.5854C50.6792 31.4929 50.6272 31.3674 50.6272 31.2365V29.4791C50.6272 29.3483 50.6792 29.2228 50.7717 29.1302C50.8642 29.0377 50.9897 28.9857 51.1205 28.9857Z" fill="#53CBC8"/>
</svg>
