<svg width="121" height="32" viewBox="0 0 121 32" fill="none" xmlns="http://www.w3.org/2000/svg">
<path d="M60.5715 6.68447V25.3511C60.5715 25.4933 60.4654 25.6355 60.2885 25.6355H58.3425C57.4581 25.6355 56.609 25.1733 56.1136 24.4267L47.3393 10.8089L47.6224 17.6V25.3867C47.6224 25.529 47.5162 25.6711 47.3393 25.6711H44.792C44.6504 25.6711 44.509 25.5645 44.509 25.3867V6.68447C44.509 6.54225 44.6151 6.40002 44.792 6.40002H46.7025C47.587 6.40002 48.4361 6.86225 48.9314 7.60892L57.7057 21.1911L57.4228 14.4V6.68447C57.4228 6.54225 57.5288 6.40002 57.7057 6.40002H60.253C60.4654 6.40002 60.5715 6.5067 60.5715 6.68447Z" fill="white"/>
<path d="M86.6806 25.6H83.9917C83.8148 25.6 83.6733 25.4223 83.7441 25.2445L90.8909 6.64892C90.9616 6.5067 91.1031 6.40002 91.2447 6.40002H94.6411C94.818 6.40002 94.9595 6.5067 94.995 6.64892L102.177 25.2445C102.248 25.4223 102.106 25.6 101.929 25.6H99.2405C99.1345 25.6 99.0283 25.529 98.993 25.4223L93.2259 10.1334C93.1552 9.92002 92.8014 9.92002 92.7306 10.1334L86.9637 25.4223C86.893 25.529 86.7868 25.6 86.6806 25.6Z" fill="white"/>
<path d="M120.929 25.1733L115.552 18.2755C118.594 17.7067 120.363 15.6445 120.363 12.48C120.363 8.85335 118.028 6.40002 113.853 6.40002H106.353C106.141 6.40002 105.964 6.5778 105.964 6.79113C105.964 8.21335 107.096 9.35113 108.511 9.35113H113.57C116.082 9.35113 117.285 10.6311 117.285 12.5156C117.285 14.4 116.118 15.68 113.57 15.68H106.423C106.211 15.68 106.034 15.8578 106.034 16.0711V25.3155C106.034 25.4578 106.141 25.6 106.317 25.6H108.865C109.006 25.6 109.148 25.4933 109.148 25.3155V18.4533H112.084L116.754 24.569C117.25 25.2445 118.028 25.6 118.877 25.6H120.823C120.965 25.6 121.071 25.3511 120.929 25.1733Z" fill="white"/>
<path d="M78.6143 6.40002H66.7621C66.5497 6.40002 66.4081 6.54225 66.4081 6.75558C66.4081 8.1778 67.5758 9.35113 68.991 9.35113H78.6143C78.7559 9.35113 78.8974 9.24447 78.8974 9.0667V6.64892C78.8621 6.5067 78.7559 6.40002 78.6143 6.40002ZM78.6143 22.649H69.7694C69.6279 22.649 69.4863 22.5423 69.4863 22.3645V17.5645C69.4863 17.4223 69.5924 17.28 69.7694 17.28H77.9421C78.0837 17.28 78.2252 17.1733 78.2252 16.9955V14.5778C78.2252 14.4356 78.119 14.2934 77.9421 14.2934H66.7974C66.5852 14.2934 66.4081 14.4711 66.4081 14.6845V25.1733C66.4081 25.3867 66.5852 25.5645 66.7974 25.5645H78.6143C78.7559 25.5645 78.8974 25.4578 78.8974 25.28V22.8623C78.8621 22.7555 78.7559 22.649 78.6143 22.649Z" fill="white"/>
<path d="M25.5444 1.63555L18.893 11.5556C18.4331 12.2311 19.3175 13.0489 19.9543 12.48L26.4996 6.75555C26.6767 6.61333 26.9243 6.72 26.9243 6.9689V24.8533C26.9243 25.1022 26.6058 25.209 26.4643 25.031L6.65147 1.20889C6.01462 0.426667 5.09474 0 4.06872 0H3.36111C1.52135 0 0 1.52889 0 3.41333V28.5867C0 30.471 1.52135 32 3.39649 32C4.56404 32 5.66083 31.3955 6.29767 30.3645L12.9491 20.4445C13.4091 19.769 12.5246 18.951 11.8877 19.52L5.3424 25.209C5.16549 25.351 4.91784 25.2445 4.91784 24.9955V7.14667C4.91784 6.89778 5.23626 6.7911 5.37778 6.9689L25.1906 30.791C25.8274 31.5733 26.7827 32 27.7733 32H28.481C30.3562 32 31.8774 30.471 31.8774 28.5867V3.41333C31.8421 1.52889 30.3207 0 28.4457 0C27.278 0 26.1812 0.604445 25.5444 1.63555Z" fill="#151414"/>
</svg>
