<svg width="82" height="82" viewBox="0 0 82 82" fill="none" xmlns="http://www.w3.org/2000/svg">
<path d="M68.3334 20.5001C68.3334 20.5001 60.5006 14.3706 51.25 13.6667L50.4164 15.3341C58.7803 17.3807 62.6173 20.3139 66.625 23.9167C59.7148 20.389 52.8917 17.0834 41 17.0834C29.1083 17.0834 22.2852 20.389 15.375 23.9167C19.3828 20.3139 23.9474 17.0578 31.5837 15.3341L30.75 13.6667C21.045 14.5841 13.6667 20.5001 13.6667 20.5001C13.6667 20.5001 4.91831 33.1845 3.41669 58.0834C12.2351 68.2531 25.625 68.3334 25.625 68.3334L28.425 64.6007C23.6724 62.9487 18.3048 59.9985 13.6667 54.6667C19.1983 58.8522 27.5469 63.2084 41 63.2084C54.4531 63.2084 62.8018 58.8522 68.3334 54.6667C63.6952 59.9985 58.3276 62.9487 53.5751 64.6007L56.375 68.3334C56.375 68.3334 69.7649 68.2531 78.5834 58.0834C77.0817 33.1845 68.3334 20.5001 68.3334 20.5001ZM29.8959 51.2501C26.5936 51.2501 23.9167 48.1905 23.9167 44.4167C23.9167 40.643 26.5936 37.5834 29.8959 37.5834C33.1981 37.5834 35.875 40.643 35.875 44.4167C35.875 48.1905 33.1981 51.2501 29.8959 51.2501ZM52.1042 51.2501C48.802 51.2501 46.125 48.1905 46.125 44.4167C46.125 40.643 48.802 37.5834 52.1042 37.5834C55.4064 37.5834 58.0834 40.643 58.0834 44.4167C58.0834 48.1905 55.4064 51.2501 52.1042 51.2501Z" fill="#8C9EFF"/>
</svg>
