<svg width="82" height="82" viewBox="0 0 82 82" fill="none" xmlns="http://www.w3.org/2000/svg">
<path d="M58.1124 71.7329L23.9457 71.7654C16.429 71.7722 10.2739 65.629 10.2654 58.1124L10.2329 23.9457C10.2261 16.429 16.3693 10.2739 23.8859 10.2654L58.0526 10.2329C65.5693 10.2261 71.7244 16.3693 71.7329 23.8859L71.7654 58.0526C71.7739 65.571 65.629 71.7261 58.1124 71.7329Z" fill="url(#paint0_radial_46_247)"/>
<path d="M58.1124 71.7329L23.9457 71.7654C16.429 71.7722 10.2739 65.629 10.2654 58.1124L10.2329 23.9457C10.2261 16.429 16.3693 10.2739 23.8859 10.2654L58.0526 10.2329C65.5693 10.2261 71.7244 16.3693 71.7329 23.8859L71.7654 58.0526C71.7739 65.571 65.629 71.7261 58.1124 71.7329Z" fill="url(#paint1_radial_46_247)"/>
<path d="M41 52.9584C34.4076 52.9584 29.0417 47.5942 29.0417 41.0001C29.0417 34.4059 34.4076 29.0417 41 29.0417C47.5925 29.0417 52.9584 34.4059 52.9584 41.0001C52.9584 47.5942 47.5925 52.9584 41 52.9584ZM41 32.4584C36.2901 32.4584 32.4584 36.2902 32.4584 41.0001C32.4584 45.71 36.2901 49.5417 41 49.5417C45.7099 49.5417 49.5417 45.71 49.5417 41.0001C49.5417 36.2902 45.7099 32.4584 41 32.4584Z" fill="white"/>
<path d="M53.8125 30.75C55.2277 30.75 56.375 29.6027 56.375 28.1875C56.375 26.7723 55.2277 25.625 53.8125 25.625C52.3973 25.625 51.25 26.7723 51.25 28.1875C51.25 29.6027 52.3973 30.75 53.8125 30.75Z" fill="white"/>
<path d="M51.25 63.2084H30.75C24.1576 63.2084 18.7917 57.8442 18.7917 51.2501V30.7501C18.7917 24.1559 24.1576 18.7917 30.75 18.7917H51.25C57.8425 18.7917 63.2084 24.1559 63.2084 30.7501V51.2501C63.2084 57.8442 57.8425 63.2084 51.25 63.2084ZM30.75 22.2084C26.0401 22.2084 22.2084 26.0402 22.2084 30.7501V51.2501C22.2084 55.96 26.0401 59.7917 30.75 59.7917H51.25C55.9599 59.7917 59.7917 55.96 59.7917 51.2501V30.7501C59.7917 26.0402 55.9599 22.2084 51.25 22.2084H30.75Z" fill="white"/>
<defs>
<radialGradient id="paint0_radial_46_247" cx="0" cy="0" r="1" gradientUnits="userSpaceOnUse" gradientTransform="translate(33.1075 71.8098) scale(76.7025)">
<stop stop-color="#FFDD55"/>
<stop offset="0.328" stop-color="#FF543F"/>
<stop offset="0.348" stop-color="#FC5245"/>
<stop offset="0.504" stop-color="#E64771"/>
<stop offset="0.643" stop-color="#D53E91"/>
<stop offset="0.761" stop-color="#CC39A4"/>
<stop offset="0.841" stop-color="#C837AB"/>
</radialGradient>
<radialGradient id="paint1_radial_46_247" cx="0" cy="0" r="1" gradientUnits="userSpaceOnUse" gradientTransform="translate(20.1344 9.46468) scale(50.9305 33.935)">
<stop stop-color="#4168C9"/>
<stop offset="0.999" stop-color="#4168C9" stop-opacity="0"/>
</radialGradient>
</defs>
</svg>
