<svg width="276" height="38" viewBox="0 0 276 38" fill="none" xmlns="http://www.w3.org/2000/svg">
<path d="M63.7188 20.7031H54.7188V30H50.0312V7.25H64.8438V11.0469H54.7188V16.9219H63.7188V20.7031ZM72.0312 30H67.5V6H72.0312V30ZM75.0625 21.3906C75.0625 19.7135 75.3854 18.2188 76.0312 16.9062C76.6771 15.5938 77.6042 14.5781 78.8125 13.8594C80.0312 13.1406 81.4427 12.7812 83.0469 12.7812C85.3281 12.7812 87.1875 13.4792 88.625 14.875C90.0729 16.2708 90.8802 18.1667 91.0469 20.5625L91.0781 21.7188C91.0781 24.3125 90.3542 26.3958 88.9062 27.9688C87.4583 29.5312 85.5156 30.3125 83.0781 30.3125C80.6406 30.3125 78.6927 29.5312 77.2344 27.9688C75.7865 26.4062 75.0625 24.2812 75.0625 21.5938V21.3906ZM79.5781 21.7188C79.5781 23.3229 79.8802 24.5521 80.4844 25.4062C81.0885 26.25 81.9531 26.6719 83.0781 26.6719C84.1719 26.6719 85.026 26.2552 85.6406 25.4219C86.2552 24.5781 86.5625 23.2344 86.5625 21.3906C86.5625 19.8177 86.2552 18.599 85.6406 17.7344C85.026 16.8698 84.1615 16.4375 83.0469 16.4375C81.9427 16.4375 81.0885 16.8698 80.4844 17.7344C79.8802 18.5885 79.5781 19.9167 79.5781 21.7188ZM100 23.2188L98.375 24.8438V30H93.8594V6H98.375V19.2969L99.25 18.1719L103.578 13.0938H109L102.891 20.1406L109.531 30H104.344L100 23.2188ZM115.719 30H111.188V13.0938H115.719V30ZM110.922 8.71875C110.922 8.04167 111.146 7.48438 111.594 7.04688C112.052 6.60938 112.672 6.39062 113.453 6.39062C114.224 6.39062 114.839 6.60938 115.297 7.04688C115.755 7.48438 115.984 8.04167 115.984 8.71875C115.984 9.40625 115.75 9.96875 115.281 10.4062C114.823 10.8438 114.214 11.0625 113.453 11.0625C112.693 11.0625 112.078 10.8438 111.609 10.4062C111.151 9.96875 110.922 9.40625 110.922 8.71875ZM137.609 22.4219C137.432 24.8698 136.526 26.7969 134.891 28.2031C133.266 29.6094 131.12 30.3125 128.453 30.3125C125.536 30.3125 123.24 29.3333 121.562 27.375C119.896 25.4062 119.062 22.7083 119.062 19.2812V17.8906C119.062 15.7031 119.448 13.776 120.219 12.1094C120.99 10.4427 122.089 9.16667 123.516 8.28125C124.953 7.38542 126.62 6.9375 128.516 6.9375C131.141 6.9375 133.255 7.64062 134.859 9.04688C136.464 10.4531 137.391 12.4271 137.641 14.9688H132.953C132.839 13.5 132.427 12.4375 131.719 11.7812C131.021 11.1146 129.953 10.7812 128.516 10.7812C126.953 10.7812 125.781 11.3438 125 12.4688C124.229 13.5833 123.833 15.3177 123.812 17.6719V19.3906C123.812 21.849 124.182 23.6458 124.922 24.7812C125.672 25.9167 126.849 26.4844 128.453 26.4844C129.901 26.4844 130.979 26.1562 131.688 25.5C132.406 24.8333 132.818 23.8073 132.922 22.4219H137.609ZM146.703 23.6094L149.828 13.0938H154.672L147.875 32.625L147.5 33.5156C146.49 35.724 144.823 36.8281 142.5 36.8281C141.844 36.8281 141.177 36.7292 140.5 36.5312V33.1094L141.188 33.125C142.042 33.125 142.677 32.9948 143.094 32.7344C143.521 32.474 143.854 32.0417 144.094 31.4375L144.625 30.0469L138.703 13.0938H143.562L146.703 23.6094ZM171.688 21.7031C171.688 24.4115 171.109 26.526 169.953 28.0469C168.797 29.5573 167.182 30.3125 165.109 30.3125C163.276 30.3125 161.812 29.6094 160.719 28.2031L160.516 30H156.453V6H160.969V14.6094C162.01 13.3906 163.38 12.7812 165.078 12.7812C167.141 12.7812 168.755 13.5417 169.922 15.0625C171.099 16.5729 171.688 18.7031 171.688 21.4531V21.7031ZM167.172 21.375C167.172 19.6667 166.901 18.4219 166.359 17.6406C165.818 16.849 165.01 16.4531 163.938 16.4531C162.5 16.4531 161.51 17.0417 160.969 18.2188V24.8906C161.521 26.0781 162.521 26.6719 163.969 26.6719C165.427 26.6719 166.385 25.9531 166.844 24.5156C167.062 23.8281 167.172 22.7812 167.172 21.375ZM182.266 30.3125C179.786 30.3125 177.766 29.5521 176.203 28.0312C174.651 26.5104 173.875 24.4844 173.875 21.9531V21.5156C173.875 19.8177 174.203 18.3021 174.859 16.9688C175.516 15.625 176.443 14.5938 177.641 13.875C178.849 13.1458 180.224 12.7812 181.766 12.7812C184.078 12.7812 185.896 13.5104 187.219 14.9688C188.552 16.4271 189.219 18.4948 189.219 21.1719V23.0156H178.453C178.599 24.1198 179.036 25.0052 179.766 25.6719C180.505 26.3385 181.438 26.6719 182.562 26.6719C184.302 26.6719 185.661 26.0417 186.641 24.7812L188.859 27.2656C188.182 28.224 187.266 28.974 186.109 29.5156C184.953 30.0469 183.672 30.3125 182.266 30.3125ZM181.75 16.4375C180.854 16.4375 180.125 16.7396 179.562 17.3438C179.01 17.9479 178.656 18.8125 178.5 19.9375H184.781V19.5781C184.76 18.5781 184.49 17.8073 183.969 17.2656C183.448 16.7135 182.708 16.4375 181.75 16.4375ZM201.297 17.3281C200.682 17.2448 200.141 17.2031 199.672 17.2031C197.964 17.2031 196.844 17.7812 196.312 18.9375V30H191.797V13.0938H196.062L196.188 15.1094C197.094 13.5573 198.349 12.7812 199.953 12.7812C200.453 12.7812 200.922 12.849 201.359 12.9844L201.297 17.3281ZM208.469 21.9844V30H203.781V7.25H212.656C214.365 7.25 215.865 7.5625 217.156 8.1875C218.458 8.8125 219.458 9.70312 220.156 10.8594C220.854 12.0052 221.203 13.3125 221.203 14.7812C221.203 17.0104 220.438 18.7708 218.906 20.0625C217.385 21.3438 215.276 21.9844 212.578 21.9844H208.469ZM208.469 18.1875H212.656C213.896 18.1875 214.839 17.8958 215.484 17.3125C216.141 16.7292 216.469 15.8958 216.469 14.8125C216.469 13.6979 216.141 12.7969 215.484 12.1094C214.828 11.4219 213.922 11.0677 212.766 11.0469H208.469V18.1875ZM234.266 28.2812C233.151 29.6354 231.609 30.3125 229.641 30.3125C227.828 30.3125 226.443 29.7917 225.484 28.75C224.536 27.7083 224.052 26.1823 224.031 24.1719V13.0938H228.547V24.0156C228.547 25.776 229.349 26.6562 230.953 26.6562C232.484 26.6562 233.536 26.125 234.109 25.0625V13.0938H238.641V30H234.391L234.266 28.2812ZM246.203 13.0938L246.344 15.0469C247.552 13.5365 249.172 12.7812 251.203 12.7812C252.995 12.7812 254.328 13.3073 255.203 14.3594C256.078 15.4115 256.526 16.9844 256.547 19.0781V30H252.031V19.1875C252.031 18.2292 251.823 17.5365 251.406 17.1094C250.99 16.6719 250.297 16.4531 249.328 16.4531C248.057 16.4531 247.104 16.9948 246.469 18.0781V30H241.953V13.0938H246.203ZM266.125 23.2188L264.5 24.8438V30H259.984V6H264.5V19.2969L265.375 18.1719L269.703 13.0938H275.125L269.016 20.1406L275.656 30H270.469L266.125 23.2188Z" fill="white"/>
<circle cx="19" cy="19" r="19" fill="#6D31D8"/>
<mask id="mask0_9_25" style="mask-type:alpha" maskUnits="userSpaceOnUse" x="0" y="0" width="38" height="38">
<circle cx="19" cy="19" r="19" fill="#833CFF"/>
</mask>
<g mask="url(#mask0_9_25)">
<circle cx="29" cy="15" r="19" fill="#833CFF"/>
</g>
</svg>
