<svg width="17" height="16" viewBox="0 0 17 16" fill="none" xmlns="http://www.w3.org/2000/svg">
<path d="M14.2309 6.45017C14.8206 6.33986 15.4162 6.26355 16.0148 6.22162V8.98062C15.4162 8.93869 14.8206 8.86238 14.2309 8.75206L13.3471 10.858C13.8523 11.1885 14.3336 11.554 14.7873 11.9518L12.8234 13.9109C12.4246 13.4582 12.0582 12.9782 11.7269 12.4743L9.61566 13.3558C9.72625 13.9441 9.80272 14.5382 9.84476 15.1353H7.0789C7.12093 14.5382 7.19746 13.9441 7.30805 13.3558L5.19682 12.4743C4.86554 12.9782 4.49916 13.4582 4.10033 13.9109L2.13639 11.9518C2.59015 11.554 3.07141 11.1885 3.5766 10.858L2.69282 8.75206C2.10309 8.86238 1.50748 8.93869 0.908936 8.98062V6.22162C1.50748 6.26355 2.10309 6.33986 2.69282 6.45017L3.5766 4.34418C3.07141 4.01372 2.59015 3.64822 2.13639 3.25038L4.10033 1.29133C4.49916 1.74397 4.86554 2.22404 5.19682 2.72798L7.30805 1.84639C7.19746 1.25812 7.12093 0.663981 7.0789 0.066925H9.84476C9.80272 0.663981 9.72625 1.25812 9.61566 1.84639L11.7269 2.72798C12.0582 2.22404 12.4246 1.74397 12.8234 1.29133L14.7873 3.25038C14.3336 3.64822 13.8523 4.01372 13.3471 4.34418L14.2309 6.45017ZM8.47002 4.24623C7.80253 4.243 7.14911 4.43748 6.59253 4.80505C6.03596 5.17261 5.60129 5.69672 5.34361 6.31095C5.08592 6.92517 5.01684 7.60186 5.14508 8.25529C5.27331 8.90873 5.59308 9.50951 6.06392 9.98148C6.53476 10.4534 7.13549 10.7754 7.78992 10.9065C8.44435 11.0375 9.12303 10.9719 9.74002 10.7178C10.357 10.4638 10.8845 10.0328 11.2557 9.47935C11.6269 8.92596 11.8251 8.2751 11.8251 7.60926C11.8251 6.72015 11.4721 5.86722 10.8434 5.237C10.2147 4.60677 9.36133 4.25055 8.47002 4.24623Z" fill="white"/>
</svg>
