<svg width="82" height="82" viewBox="0 0 82 82" fill="none" xmlns="http://www.w3.org/2000/svg">
<path d="M78.7627 18.826C76.1131 19.9996 73.2635 20.782 70.2569 21.1527C73.3131 19.3385 75.6655 16.4446 76.7691 13.0245C73.9093 14.7004 70.7403 15.9321 67.3698 16.5812C64.6775 13.7283 60.8371 11.9585 56.5834 11.9585C48.4124 11.9585 41.7875 18.5236 41.7875 26.6194C41.7875 27.7657 41.9225 28.8812 42.1736 29.9643C29.8804 29.3476 18.9761 23.5034 11.6816 14.6337C10.4003 16.8016 9.67939 19.3385 9.67939 22.0172C9.67939 27.1063 12.2846 31.5872 16.2582 34.2266C13.8323 34.1532 11.55 33.4784 9.55126 32.3953C9.55126 32.4397 9.55126 32.5046 9.55126 32.5678C9.55126 39.6796 14.6523 45.6024 21.4139 46.9503C20.1788 47.2885 18.8719 47.4765 17.5258 47.4765C16.5708 47.4765 15.6398 47.3688 14.7378 47.2065C16.6203 53.0183 22.0819 57.2669 28.5531 57.3933C23.4896 61.3191 17.1123 63.6698 10.1782 63.6698C8.98068 63.6698 7.80876 63.6014 6.65051 63.4613C13.2054 67.6109 20.9834 70.0418 29.3338 70.0418C56.5424 70.0418 71.4288 47.6985 71.4288 28.3141C71.4288 27.6786 71.4083 27.0465 71.3793 26.4212C74.2834 24.3695 76.7861 21.7831 78.7627 18.826Z" fill="url(#paint0_linear_46_260)"/>
<defs>
<linearGradient id="paint0_linear_46_260" x1="17.6658" y1="14.1998" x2="69.6966" y2="66.2305" gradientUnits="userSpaceOnUse">
<stop stop-color="#2AA4F4"/>
<stop offset="1" stop-color="#007AD9"/>
</linearGradient>
</defs>
</svg>
