<svg width="15" height="12" viewBox="0 0 15 12" fill="none" xmlns="http://www.w3.org/2000/svg">
<path d="M7.12138 0.123901L1.80243 3.99306V7.25816L7.12138 11.1273V0.123901Z" fill="white"/>
<path d="M0.444016 8.27032H3.24261L3.24261 2.93188H0.444016L0.444016 8.27032Z" fill="white"/>
<path d="M10.5255 10.8987C10.3742 10.8979 10.2278 10.8449 10.1112 10.7486C9.99463 10.6523 9.9151 10.5187 9.88616 10.3705C9.85722 10.2223 9.88066 10.0687 9.95247 9.93585C10.0243 9.80296 10.14 9.69897 10.28 9.64161C10.8046 9.41687 11.2821 9.09565 11.6875 8.69473C12.0986 8.28816 12.4265 7.80579 12.6531 7.27443C12.8813 6.73166 12.9981 6.14881 12.9968 5.56026C12.9859 4.38048 12.5166 3.25094 11.6875 2.40947C11.2821 2.00855 10.8046 1.68733 10.28 1.46259C10.2006 1.43054 10.1285 1.38287 10.068 1.32244C10.0075 1.26201 9.95976 1.19004 9.92769 1.11083C9.89562 1.03162 9.87986 0.946786 9.88134 0.861373C9.88283 0.77596 9.90153 0.691715 9.93633 0.613662C10.0017 0.453675 10.128 0.326053 10.2875 0.258736C10.447 0.191419 10.6268 0.189892 10.7874 0.254501C11.4752 0.542138 12.0984 0.963991 12.6204 1.49525C13.1387 2.01809 13.555 2.6326 13.8479 3.30737C14.1547 4.01879 14.3107 4.7858 14.3061 5.56026C14.3105 6.32415 14.1544 7.08048 13.8479 7.78051C13.2663 9.16143 12.1686 10.2622 10.7874 10.8497C10.7043 10.8833 10.6152 10.9 10.5255 10.8987Z" fill="white"/>
<path d="M9.29808 8.31923C9.17803 8.32066 9.0604 8.28545 8.96095 8.21835C8.86151 8.15124 8.78499 8.05545 8.74165 7.94376C8.70953 7.86992 8.69251 7.79041 8.69163 7.70992C8.69074 7.62943 8.70601 7.54959 8.7365 7.47507C8.767 7.40054 8.81211 7.33284 8.86921 7.27596C8.9263 7.21907 8.99422 7.17414 9.06896 7.14381C9.46223 6.96839 9.77686 6.65454 9.95272 6.26225C10.0465 6.05706 10.0966 5.8347 10.1 5.60922C10.1019 5.38314 10.0515 5.15968 9.95272 4.95622C9.87811 4.75025 9.75456 4.56539 9.59266 4.41748C9.44745 4.25993 9.26843 4.13715 9.06896 4.05832C8.99422 4.02799 8.9263 3.98305 8.86921 3.92617C8.81211 3.86928 8.767 3.80161 8.7365 3.72708C8.70601 3.65256 8.69074 3.57269 8.69163 3.4922C8.69251 3.41171 8.70953 3.33223 8.74165 3.25839C8.77205 3.18383 8.81707 3.11608 8.8741 3.05913C8.93113 3.00218 8.999 2.95718 9.07371 2.92676C9.14842 2.89634 9.22846 2.88111 9.30915 2.88199C9.38984 2.88287 9.46954 2.89983 9.54357 2.93186C9.88583 3.07864 10.1969 3.2892 10.4601 3.55224C10.7336 3.8099 10.9509 4.12114 11.0983 4.46645C11.2491 4.82581 11.3268 5.2115 11.3268 5.60107C11.3268 5.99064 11.2491 6.37631 11.0983 6.73567C10.9509 7.08099 10.7336 7.39222 10.4601 7.64989C10.1969 7.91293 9.88583 8.12348 9.54357 8.27026C9.46566 8.30219 9.38231 8.31881 9.29808 8.31923Z" fill="white"/>
</svg>
